<!-- Placeholder for Spider-Man 2099 -->
<svg width="300" height="400" xmlns="http://www.w3.org/2000/svg">
  <defs>
    <linearGradient id="spider2099Gradient" x1="0%" y1="0%" x2="100%" y2="100%">
      <stop offset="0%" style="stop-color:#001f3f;stop-opacity:1" />
      <stop offset="50%" style="stop-color:#00AAFF;stop-opacity:1" />
      <stop offset="100%" style="stop-color:#001f3f;stop-opacity:1" />
    </linearGradient>
    <filter id="glow">
      <feGaussianBlur stdDeviation="3" result="coloredBlur"/>
      <feMerge> 
        <feMergeNode in="coloredBlur"/>
        <feMergeNode in="SourceGraphic"/>
      </feMerge>
    </filter>
  </defs>
  
  <!-- Background -->
  <rect width="300" height="400" fill="url(#spider2099Gradient)"/>
  
  <!-- Body silhouette -->
  <ellipse cx="150" cy="280" rx="60" ry="120" fill="#00AAFF" opacity="0.8"/>
  
  <!-- Head -->
  <circle cx="150" cy="120" r="50" fill="#00AAFF" opacity="0.9"/>
  
  <!-- Spider emblem -->
  <path d="M150 100 L140 120 L160 120 Z" fill="#ffffff" filter="url(#glow)"/>
  <path d="M150 100 L130 110 L150 130 L170 110 Z" fill="#ffffff" opacity="0.7"/>
  
  <!-- Web pattern -->
  <g stroke="#ffffff" stroke-width="1" opacity="0.3" fill="none">
    <circle cx="150" cy="120" r="30"/>
    <circle cx="150" cy="120" r="40"/>
    <line x1="120" y1="120" x2="180" y2="120"/>
    <line x1="150" y1="90" x2="150" y2="150"/>
    <line x1="130" y1="100" x2="170" y2="140"/>
    <line x1="170" y1="100" x2="130" y2="140"/>
  </g>
  
  <!-- Futuristic elements -->
  <rect x="140" y="110" width="20" height="4" fill="#ff0000" opacity="0.8"/>
  <rect x="135" y="115" width="30" height="2" fill="#ff0000" opacity="0.6"/>
  
  <!-- Text -->
  <text x="150" y="360" text-anchor="middle" font-family="Arial, sans-serif" font-size="18" font-weight="bold" fill="#00AAFF" filter="url(#glow)">SPIDER-MAN 2099</text>
  <text x="150" y="380" text-anchor="middle" font-family="Arial, sans-serif" font-size="12" fill="#ffffff" opacity="0.8">EARTH-928</text>
</svg>
